:SAMPLES-PER-SECOND 30
:FRAME-RANGE 1-1700
:FULLY-SPECIFIED
:DEGREES
479
root  11.5894 36.2344 -48.5483 151.282 64.5608 160.066
RightUpLeg  4.15567 -2.04076 11.2514
RightLeg  37.4444 -12.0523 -9.98553
RightFoot  -30.6819 -1.77057 -9.14517
RightToes  -1.16417e-010 0 -3.6325e-017
Spine  20.8599 3.14543 -5.50429
Spine1  0.133922 -4.46977 2.32981
HEad  1.29264 32.7016 -25.1952
LeftShoulder1  2.90681 -5.055 -27.8964
LeftArm  92.5067 -36.1196 -94.4001
LeftForeArm  -18.9053 -17.9732 -12.1323
LeftHand  -0.0485381 2.79971 1.54263
RightShoulder  12.6788 26.4967 36.0047
RightArm  27.3939 14.6225 19.1207
RightForeArm  25.7158 33.5623 5.97103
RightHand  1.60175 7.67938 13.7439
LeftUpLeg  -104.893 21.0899 -83.0954
LeftLeg  119.933 0.30364 -1.01075
LeftFoot  9.2869 1.6131 -9.16217
LeftToes  1.03528e-008 1.55373e-010 -2.26046e-010
480
root  11.2359 35.1572 -48.6996 153.316 63.1024 162.553
RightUpLeg  1.18783 -3.92844 12.352
RightLeg  43.8872 -13.5765 -13.8695
RightFoot  -35.8639 -2.56221 -10.6295
RightToes  -1.16417e-010 0 -3.6325e-017
Spine  21.9208 3.73959 -1.3641
Spine1  -1.29603 -2.83757 -1.53314
HEad  -2.6879 34.424 -29.0553
LeftShoulder1  2.88327 -4.84687 -28.4751
LeftArm  94.5654 -35.8892 -94.3802
LeftForeArm  -20.2043 -18.499 -11.6423
LeftHand  -0.0467667 2.63397 1.40802
RightShoulder  12.7488 27.3653 35.0326
RightArm  28.4987 13.6296 18.5377
RightForeArm  25.1807 34.9682 6.36526
RightHand  1.63218 7.34169 14.3955
LeftUpLeg  -108.614 23.5046 -84.9675
LeftLeg  120.915 0.99318 -2.04438
LeftFoot  8.90473 1.11896 -6.56776
LeftToes  1.03528e-008 1.55373e-010 -2.26046e-010
481
root  10.7034 34.3401 -48.811 155.166 61.6479 164.565
RightUpLeg  -3.53111 -9.15214 11.2045
RightLeg  51.4269 -10.4961 -14.1172
RightFoot  -37.5762 -2.59421 -10.0019
RightToes  -1.16417e-010 0 -3.6325e-017
Spine  21.3129 3.46753 1.04837
Spine1  0.843895 -2.24706 -3.51736
HEad  -8.72601 37.961 -34.2668
LeftShoulder1  2.86243 -4.70372 -28.8309
LeftArm  93.8236 -36.7117 -92.3571
LeftForeArm  -21.1394 -18.3782 -11.8395
LeftHand  -0.0518678 2.48901 1.5771
RightShoulder  13.9201 30.04 35.1331
RightArm  31.522 14.8568 18.9329
RightForeArm  23.2811 33.1779 6.01527
RightHand  1.61618 7.13406 14.4979
LeftUpLeg  -112.757 26.9229 -86.8136
LeftLeg  121.807 1.38645 -2.57005
LeftFoot  7.82505 0.476186 -3.10306
LeftToes  1.03528e-008 1.55373e-010 -2.26046e-010
482
root  10.4858 34.1897 -48.818 159.829 55.0937 171.065
RightUpLeg  -2.73911 -18.2642 10.7583
RightLeg  50.0708 -10.5922 -13.5938
RightFoot  -38.9629 -2.89786 -10.6692
RightToes  -1.16417e-010 0 -3.6325e-017
Spine  20.3767 2.05569 1.05386
Spine1  3.66066 -3.36543 -0.212097
HEad  -10.6205 41.0566 -35.4329
LeftShoulder1  2.86305 -4.63597 -29.135
LeftArm  91.7214 -36.7356 -90.7371
LeftForeArm  -18.7387 -18.1044 -11.9796
LeftHand  -0.0577015 2.97121 2.06715
RightShoulder  14.751 30.7431 36.6451
RightArm  34.3162 15.0521 20.1681
RightForeArm  22.5776 31.5224 5.64495
RightHand  1.60864 7.19537 14.3563
LeftUpLeg  -111.293 32.1829 -84.5933
LeftLeg  124.03 2.82274 -4.35143
LeftFoot  6.53887 -0.670576 4.00799
LeftToes  1.03528e-008 1.55373e-010 -2.26046e-010
483
root  10.2459 34.2699 -48.7229 162.836 49.8992 174.187
RightUpLeg  -4.14956 -21.0344 12.032
RightLeg  49.3546 -12.4716 -15.419
RightFoot  -38.3794 -2.62035 -9.77983
RightToes  -1.16417e-010 0 -3.6325e-017
Spine  21.035 1.81538 1.96828
Spine1  2.44262 -2.5859 -0.0450829
HEad  -10.4703 42.2011 -33.1823
LeftShoulder1  2.79486 -4.45518 -29.0748
LeftArm  94.1092 -34.5601 -88.0868
LeftForeArm  -20.6404 -19.1536 -10.924
LeftHand  -0.0368959 2.61024 0.976384
RightShoulder  15.4851 28.879 41.2583
RightArm  34.7649 13.2365 20.5866
RightForeArm  23.3302 30.6802 5.39927
RightHand  1.60576 7.26954 14.2431
LeftUpLeg  -112.977 34.235 -83.6132
LeftLeg  126.811 1.41666 -2.21798
LeftFoot  7.8044 -1.61897 9.29454
LeftToes  1.03528e-008 1.55373e-010 -2.26046e-010
484
root  10.2323 34.8825 -48.4849 164.624 44.9535 174.726
RightUpLeg  -4.9089 -24.3953 11.6447
RightLeg  45.579 -13.1708 -14.2823
RightFoot  -35.8001 -2.29331 -9.42953
RightToes  -1.16417e-010 0 -3.6325e-017
Spine  20.0962 2.10456 1.61203
Spine1  2.44162 -1.78593 -0.781408
HEad  -11.839 42.1072 -32.2953
LeftShoulder1  2.73357 -4.35233 -28.7465
LeftArm  95.206 -32.6344 -85.2589
LeftForeArm  -23.9035 -19.7544 -10.4398
LeftHand  -0.00883556 1.77395 -0.026568
RightShoulder  15.9987 27.7461 44.438
RightArm  35.2421 11.8533 21.0264
RightForeArm  20.0669 29.119 5.21415
RightHand  1.59409 7.21852 14.1976
LeftUpLeg  -115.553 35.113 -84.0894
LeftLeg  128.418 -1.19731 0.960377
LeftFoot  10.4629 -2.03561 10.2062
LeftToes  1.03528e-008 1.55373e-010 -2.26046e-010
485
root  10.4382 35.8626 -48.2251 165.807 36.8979 174.748
RightUpLeg  -4.14414 -30.5774 9.91715
RightLeg  39.2697 -13.8094 -12.0833
RightFoot  -31.7515 -1.89998 -9.33146
RightToes  -1.16417e-010 0 -3.6325e-017
Spine  19.6029 2.03262 -0.180963
Spine1  2.14584 -2.03357 -0.867657
HEad  -11.4798 41.0122 -30.6755
LeftShoulder1  2.77191 -4.44773 -28.8134
LeftArm  93.5202 -32.0898 -85.1062
LeftForeArm  -20.8479 -19.4878 -10.5442
LeftHand  -0.012177 1.95058 0.0540703
RightShoulder  15.7479 26.7326 45.281
RightArm  34.9494 10.3206 21.8812
RightForeArm  18.0165 27.7061 5.00246
RightHand  1.52302 7.18357 13.5944
LeftUpLeg  -112.911 34.5742 -83.5789
LeftLeg  128.774 -1.96034 1.82969
LeftFoot  10.4951 -1.57833 7.83535
LeftToes  1.03528e-008 1.55373e-010 -2.26046e-010
486
root  10.7031 36.9793 -48.0086 167.113 29.3028 174.089
RightUpLeg  -3.8245 -33.7129 8.74554
RightLeg  32.7867 -15.1269 -10.5025
RightFoot  -26.1922 -1.17899 -7.67138
RightToes  -1.16417e-010 0 -3.6325e-017
Spine  19.2906 2.31947 -1.70478
Spine1  0.765423 -1.94964 -1.78817
HEad  -8.96689 40.1602 -28.3552
LeftShoulder1  2.84096 -4.58883 -29.065
LeftArm  87.975 -32.2702 -85.8645
LeftForeArm  -13.9661 -18.1743 -11.5941
LeftHand  -0.0049484 2.3547 -0.308572
RightShoulder  15.1737 25.6911 45.2118
RightArm  35.0695 9.24467 22.7968
RightForeArm  18.1284 26.7568 4.78249
RightHand  1.47072 7.37089 12.9186
LeftUpLeg  -111.617 33.0113 -83.6022
LeftLeg  128.364 -0.618877 0.281988
LeftFoot  13.4035 -0.167783 0.389591
LeftToes  1.03528e-008 1.55373e-010 -2.26046e-010
487
root  10.8924 38.1313 -47.7642 168.827 22.485 173.532
RightUpLeg  -4.83987 -32.2437 8.65546
RightLeg  27.6944 -16.7192 -9.5262
RightFoot  -18.4329 -0.521633 -6.40079
RightToes  -1.16417e-010 0 -3.6325e-017
Spine  19.0636 2.34095 -2.7359
Spine1  -0.396747 -1.86421 -3.0238
HEad  -6.25876 40.3112 -26.7925
LeftShoulder1  2.9031 -4.71943 -29.2681
LeftArm  85.4837 -32.439 -85.884
LeftForeArm  -10.5529 -17.604 -11.9971
LeftHand  0.00289413 2.47293 -0.668795
RightShoulder  14.8587 25.2489 44.9536
RightArm  36.7694 9.35979 23.5452
RightForeArm  17.444 25.4942 4.54077
RightHand  1.44838 7.49492 12.5905
LeftUpLeg  -110.27 30.4863 -83.7589
LeftLeg  127.378 0.792806 -1.42024
LeftFoot  14.1716 1.26322 -5.962
LeftToes  1.03528e-008 1.55373e-010 -2.26046e-010
488
root  10.9379 39.1673 -47.5147 170.232 15.4847 174.054
RightUpLeg  -5.32469 -22.2894 8.51089
RightLeg  24.2946 -14.0339 -7.04165
RightFoot  -9.11991 0.0622262 -6.37344
RightToes  -1.16417e-010 0 -3.6325e-017
Spine  19.4494 1.85715 -3.51219
Spine1  -0.585989 -2.38635 -2.20998
HEad  -5.48495 40.7759 -27.2936
LeftShoulder1  2.9498 -4.83251 -29.3518
LeftArm  86.9625 -32.9027 -86.2479
LeftForeArm  -11.6406 -17.9558 -11.6869
LeftHand  0.00439193 2.6215 -0.585226
RightShoulder  14.6944 25.5196 43.984
RightArm  37.7129 10.1259 23.9298
RightForeArm  16.5966 24.7264 4.41944
RightHand  1.45777 7.60547 12.5609
LeftUpLeg  -108.267 28.0343 -82.7293
LeftLeg  125.854 0.604307 -1.24541
LeftFoot  14.9373 2.31451 -10.2895
LeftToes  1.03528e-008 1.55373e-010 -2.26046e-010
